<svg width="20" height="21" viewBox="0 0 20 21" fill="none" xmlns="http://www.w3.org/2000/svg">
<path d="M3.15219 15.6815V17.698C3.15326 18.598 3.88259 19.3273 4.78263 19.3284H15.8696C16.7696 19.3274 17.4989 18.598 17.5 17.698V6.61105C17.4989 5.71105 16.7696 4.98172 15.8696 4.98061H14.4472C13.9954 3.06983 12.2894 1.72021 10.3259 1.72021C8.36245 1.72021 6.65649 3.06983 6.20466 4.98061H4.78259C3.88259 4.98172 3.15326 5.71105 3.15219 6.61105V11.2363C2.76272 11.374 2.50172 11.7414 2.5 12.1545V14.7632C2.50172 15.1763 2.76272 15.5438 3.15219 15.6815ZM16.8478 6.61105C16.8483 6.87067 16.7454 7.11979 16.5619 7.30336C16.3783 7.48694 16.1292 7.58985 15.8696 7.58931H14.2414C14.4554 7.0724 14.5655 6.51835 14.5652 5.95887C14.5652 5.85061 14.56 5.7417 14.5515 5.63279H15.8696C16.4098 5.63279 16.8478 6.07079 16.8478 6.61105ZM6.79001 5.36052C7.0194 3.96226 8.05044 2.83008 9.42118 2.47122C10.7919 2.11236 12.2455 2.59404 13.1306 3.7005C14.0158 4.80697 14.1666 6.3308 13.5155 7.58931H12.2686L12.1124 6.64365C12.1094 6.62454 12.1145 6.60501 12.1265 6.58984L12.8931 5.81343C13.0816 5.62179 13.1464 5.34042 13.0607 5.08562C12.9815 4.83834 12.7697 4.65683 12.5132 4.6164L11.4508 4.45758C11.438 4.45464 11.4276 4.44562 11.4228 4.43347L10.9408 3.42063C10.8308 3.18011 10.5907 3.02585 10.3263 3.02585C10.0618 3.02585 9.8217 3.18011 9.71176 3.42063L9.22916 4.43607C9.22496 4.44558 9.21758 4.4533 9.2083 4.45793L8.1371 4.61804C7.88134 4.65889 7.67037 4.84025 7.59157 5.08695C7.50586 5.34188 7.57067 5.62332 7.75917 5.81511L8.52287 6.58793C8.53655 6.60349 8.54285 6.62416 8.54014 6.64468L8.38362 7.59034H7.13668C6.78145 6.90499 6.65974 6.12238 6.79005 5.36156L6.79001 5.36052ZM8.98914 6.13071L8.22285 5.35494C8.20646 5.33744 8.20153 5.31211 8.21013 5.28971C8.21403 5.27764 8.22186 5.26266 8.23459 5.26071L9.31067 5.09995C9.53246 5.0612 9.7215 4.91691 9.81742 4.71319L10.3 3.69905L10.3261 3.67624L10.8335 4.71124C10.9306 4.91756 11.1228 5.063 11.3477 5.10025L12.415 5.25972C12.4297 5.26201 12.4375 5.27699 12.4414 5.28906C12.4502 5.31142 12.4453 5.33683 12.4287 5.35429L11.6595 6.13365C11.5029 6.29736 11.4323 6.52507 11.4687 6.74866L11.608 7.58931H9.04459L9.18384 6.74835C9.21957 6.52331 9.1475 6.29457 8.98914 6.13071ZM4.78263 5.63279H6.10068C6.0922 5.7417 6.087 5.85061 6.087 5.95887C6.08666 6.51838 6.19683 7.07244 6.41113 7.58931H4.78267C4.4287 7.5905 4.08497 7.70808 3.80441 7.92387V6.61105C3.80437 6.07079 4.24233 5.63279 4.78263 5.63279ZM4.78263 8.2415H15.8696C16.2234 8.23959 16.5669 8.12212 16.8478 7.90694V17.698C16.8478 18.2383 16.4098 18.6763 15.8696 18.6763H4.78263C4.24237 18.6763 3.80437 18.2383 3.80437 17.698V15.7415H6.73915C7.9998 15.7415 9.02174 14.7195 9.02174 13.4589C9.02174 12.1983 7.99977 11.1763 6.73915 11.1763H3.80437V9.21979C3.80437 8.67946 4.24233 8.2415 4.78263 8.2415ZM3.15219 12.1545C3.15219 11.9744 3.2982 11.8285 3.47826 11.8285H6.73911C7.63957 11.8285 8.36955 12.5584 8.36955 13.4589C8.36955 14.3594 7.63957 15.0893 6.73911 15.0893H3.47826C3.29816 15.0893 3.15219 14.9434 3.15219 14.7633V12.1545Z" fill="#4A4A4A" stroke="#4A4A4A" stroke-width="0.4"/>
</svg>
