<svg width="40" height="40" viewBox="0 0 40 40" fill="none" xmlns="http://www.w3.org/2000/svg">
<path d="M36.1589 10.3129L36.6011 9.87071C36.8572 9.61458 36.8572 9.19927 36.6011 8.94308C36.3449 8.68701 35.9296 8.68701 35.6734 8.94308L35.2313 9.38522L34.7894 8.94334C34.6664 8.82036 34.4996 8.75123 34.3256 8.75123H33.6042L30.2541 5.4011C30.131 5.27812 29.9642 5.20898 29.7903 5.20898H5.57309C4.27061 5.20898 3.21094 6.26859 3.21094 7.57113V19.8627C3.21094 21.1652 4.27061 22.2249 5.57309 22.2249H11.2873L7.44469 26.0675C6.99855 26.5137 6.75285 27.1068 6.75285 27.7378C6.75285 28.3687 6.99855 28.9619 7.44469 29.4081L16.1361 38.0996C16.5823 38.5457 17.1755 38.7914 17.8064 38.7914C18.4374 38.7914 19.0306 38.5457 19.4767 38.0996L25.9863 31.59C26.2425 31.3339 26.2425 30.9186 25.9863 30.6624C25.7302 30.4064 25.3149 30.4063 25.0588 30.6624L18.5491 37.1719C18.3508 37.3703 18.087 37.4795 17.8064 37.4795C17.5259 37.4795 17.2621 37.3703 17.0638 37.1719L8.37226 28.4805C8.17392 28.2822 8.06465 28.0184 8.06465 27.7378C8.06465 27.4572 8.17392 27.1935 8.37226 26.9952L25.3043 10.0632H34.054L34.3038 10.3129L32.7871 11.8296C32.5302 11.7064 32.2427 11.6374 31.9393 11.6374C30.8543 11.6374 29.9716 12.5201 29.9716 13.6051C29.9716 14.6901 30.8543 15.5728 31.9393 15.5728C33.0242 15.5728 33.907 14.6901 33.907 13.6051C33.907 13.3016 33.8378 13.0141 33.7146 12.7573L35.2313 11.2406L35.4811 11.4903V20.24L29.2328 26.4884C28.9766 26.7445 28.9766 27.1598 29.2328 27.416C29.4889 27.6721 29.9042 27.6721 30.1604 27.416L36.6009 20.9756C36.7238 20.8525 36.793 20.6857 36.793 20.5118V11.2185C36.793 11.0446 36.7238 10.8778 36.6009 10.7547L36.1589 10.3129ZM14.9895 16.9781C14.6277 16.9781 14.3334 16.6838 14.3334 16.322C14.3334 15.9601 14.6277 15.6658 14.9895 15.6658C15.3513 15.6658 15.6456 15.9601 15.6456 16.322C15.6456 16.6837 15.3513 16.9781 14.9895 16.9781ZM25.0326 8.75129C24.8586 8.75129 24.6918 8.82042 24.5688 8.9434L16.9411 16.571C16.9515 16.4894 16.9574 16.4063 16.9574 16.3219C16.9574 15.2368 16.0747 14.354 14.9895 14.354C13.9045 14.354 13.0217 15.2368 13.0217 16.3219C13.0217 17.407 13.9044 18.2898 14.9895 18.2898C15.074 18.2898 15.157 18.2838 15.2387 18.2735L12.5991 20.913H5.57309C4.99393 20.913 4.52273 20.4418 4.52273 19.8627V7.57113C4.52273 6.99198 4.99393 6.52078 5.57309 6.52078H29.5185L31.7491 8.75129H25.0326ZM31.9393 14.2608C31.5776 14.2608 31.2834 13.9666 31.2834 13.6049C31.2834 13.2433 31.5776 12.949 31.9393 12.949C32.0889 12.949 32.2267 13 32.3372 13.0847C32.3546 13.1074 32.3731 13.1296 32.3938 13.1503C32.4145 13.1711 32.4367 13.1896 32.4594 13.2069C32.5441 13.3175 32.5951 13.4552 32.5951 13.6049C32.5952 13.9666 32.3009 14.2608 31.9393 14.2608Z" fill="white"/>
<path d="M25.0225 24.6129C25.1964 24.6129 25.3633 24.5438 25.4863 24.4208L26.9704 22.9366C27.2265 22.6805 27.2265 22.2652 26.9704 22.009C26.7142 21.7529 26.2989 21.7529 26.0428 22.009L25.0225 23.0294L21.7759 19.7829C21.5199 19.5268 21.1045 19.5268 20.8483 19.7829C20.5922 20.039 20.5922 20.4543 20.8483 20.7105L24.5587 24.4208C24.6817 24.5438 24.8486 24.6129 25.0225 24.6129Z" fill="white"/>
<path d="M30.1248 18.8545C29.8687 18.5985 29.4534 18.5985 29.1972 18.8545L28.3623 19.6893L27.4348 18.7618L28.2696 17.927C28.5257 17.6709 28.5257 17.2556 28.2696 16.9994C28.0135 16.7433 27.5982 16.7433 27.342 16.9994L26.5071 17.8342L25.5796 16.9066L26.4144 16.0718C26.6705 15.8157 26.6706 15.4004 26.4144 15.1442C26.1583 14.8882 25.7429 14.8881 25.4868 15.1442L24.1882 16.4428C24.0652 16.5658 23.9961 16.7326 23.9961 16.9066C23.9961 17.0805 24.0652 17.2473 24.1882 17.3704L27.8986 21.0806C28.0266 21.2087 28.1945 21.2727 28.3623 21.2727C28.5302 21.2727 28.6981 21.2087 28.8261 21.0806L30.1247 19.782C30.3809 19.526 30.3809 19.1106 30.1248 18.8545Z" fill="white"/>
<path d="M22.8681 26.3962C23.1907 26.5607 23.5858 26.4322 23.7503 26.1095C23.9147 25.7867 23.7864 25.3918 23.4635 25.2274L18.5474 22.7229C18.2942 22.5939 17.9868 22.6426 17.7859 22.8435C17.585 23.0444 17.5362 23.3519 17.6653 23.605L20.1697 28.5211C20.2856 28.7486 20.5158 28.8795 20.7547 28.8795C20.8548 28.8795 20.9566 28.8564 21.0519 28.8078C21.3746 28.6434 21.503 28.2485 21.3386 27.9257L21.1375 27.5309L22.4734 26.195L22.8681 26.3962ZM20.5113 26.3019L19.7502 24.8078L21.2444 25.569L20.5113 26.3019Z" fill="white"/>
<path d="M16.5847 31.47C16.3286 31.7261 16.3285 32.1414 16.5847 32.3976C16.7128 32.5256 16.8807 32.5897 17.0485 32.5897C17.2164 32.5897 17.3843 32.5256 17.5123 32.3976L18.4399 31.47C19.2072 30.7028 19.2072 29.4545 18.4399 28.6873C17.7107 27.958 16.5472 27.9225 15.7749 28.5794C15.7509 28.5976 15.7275 28.6169 15.7057 28.6388L15.6572 28.6873C15.5333 28.8112 15.3686 28.8794 15.1934 28.8794C15.0182 28.8794 14.8535 28.8112 14.7296 28.6873C14.4739 28.4315 14.4739 28.0154 14.7296 27.7596L15.6572 26.8321C15.9133 26.5759 15.9134 26.1606 15.6572 25.9044C15.401 25.6484 14.9857 25.6484 14.7296 25.9044L13.802 26.832C13.0348 27.5992 13.0348 28.8476 13.802 29.6148C14.1737 29.9865 14.6678 30.1911 15.1933 30.1911C15.7182 30.1911 16.2117 29.987 16.5833 29.6161C16.5838 29.6157 16.5843 29.6153 16.5847 29.6148C16.8404 29.359 17.2566 29.359 17.5123 29.6148C17.6362 29.7387 17.7044 29.9034 17.7044 30.0786C17.7044 30.2538 17.6362 30.4185 17.5123 30.5423L16.5847 31.47Z" fill="white"/>
<path d="M14.4473 9.44322C14.1319 9.26521 13.7318 9.37645 13.5537 9.69194L9.32314 17.1858C9.14506 17.5013 9.25637 17.9014 9.57185 18.0794C9.67378 18.137 9.78443 18.1643 9.8937 18.1643C10.1226 18.1643 10.3449 18.0443 10.4654 17.8307L14.696 10.3368C14.8741 10.0213 14.7628 9.62123 14.4473 9.44322Z" fill="white"/>
<path d="M11.4203 11.1115C11.4203 10.0263 10.5375 9.14355 9.45235 9.14355C8.36722 9.14355 7.48438 10.0263 7.48438 11.1115C7.48438 12.1966 8.36716 13.0794 9.45229 13.0794C10.5374 13.0794 11.4203 12.1966 11.4203 11.1115ZM8.79619 11.1115C8.79619 10.7497 9.09049 10.4554 9.45229 10.4554C9.81409 10.4554 10.1084 10.7497 10.1084 11.1115C10.1084 11.4733 9.81409 11.7676 9.45229 11.7676C9.09049 11.7676 8.79619 11.4733 8.79619 11.1115Z" fill="white"/>
<path d="M27.609 28.3828C27.4359 28.3828 27.2673 28.453 27.1453 28.5751C27.0233 28.697 26.9531 28.8662 26.9531 29.0387C26.9531 29.2113 27.0233 29.3805 27.1453 29.5024C27.2673 29.6244 27.4359 29.6946 27.609 29.6946C27.7815 29.6946 27.9508 29.6245 28.0728 29.5024C28.1948 29.3805 28.2649 29.2113 28.2649 29.0387C28.2649 28.8662 28.1948 28.697 28.0728 28.5751C27.9508 28.4531 27.7815 28.3828 27.609 28.3828Z" fill="white"/>
</svg>
