<svg width="20" height="21" viewBox="0 0 20 21" fill="none" xmlns="http://www.w3.org/2000/svg">
<path d="M17.1745 9.82246C17.4697 9.52213 17.574 9.08134 17.4466 8.67159C17.3189 8.26183 16.9864 7.96933 16.5779 7.90726L12.946 7.35643C12.7913 7.33292 12.6576 7.23166 12.5885 7.08525L10.9648 3.65017C10.7824 3.26425 10.4124 3.02441 10 3.02441C9.5879 3.02441 9.21785 3.26425 9.03553 3.65017L7.41147 7.08525C7.34239 7.23166 7.20843 7.33292 7.05374 7.35643L3.42175 7.90757C3.01356 7.96933 2.68106 8.26183 2.5534 8.67159C2.42605 9.08134 2.53027 9.52213 2.82553 9.82246L5.45341 12.496C5.56544 12.6102 5.6168 12.7744 5.59037 12.9349L4.97012 16.7105C4.90044 17.1347 5.06414 17.5551 5.39784 17.8084C5.73124 18.062 6.16527 18.0949 6.53081 17.894L9.77893 16.1114C9.9174 16.0355 10.0826 16.0355 10.2211 16.1114L13.4695 17.894C13.6281 17.9811 13.7999 18.0241 13.9708 18.0241C14.1928 18.0241 14.4138 17.9517 14.6025 17.8084C14.9362 17.5551 15.0999 17.1347 15.0302 16.7105L14.4096 12.9353C14.3832 12.7744 14.4346 12.6105 14.5466 12.4964L17.1745 9.82246ZM13.8179 13.0412L14.4382 16.8165C14.4694 17.0064 14.3988 17.188 14.2492 17.3014C14.0994 17.4146 13.9128 17.4284 13.7491 17.3394L10.5007 15.5565C10.3442 15.4709 10.1718 15.4276 10 15.4276C9.82819 15.4276 9.65608 15.4709 9.49929 15.5568L6.25147 17.3394C6.08717 17.4284 5.90065 17.4146 5.75107 17.3014C5.60149 17.188 5.5312 17.0068 5.56214 16.8165L6.18239 13.0412C6.24216 12.6769 6.12652 12.3051 5.87301 12.0474L3.24484 9.37352C3.11238 9.23872 3.06732 9.04873 3.12469 8.86533C3.18176 8.68162 3.32503 8.55559 3.50796 8.52769L7.13964 7.97686C7.49017 7.92388 7.79323 7.69439 7.94972 7.3627L9.57378 3.92762C9.65548 3.75457 9.81498 3.65142 9.9997 3.65142C10.1847 3.65142 10.3439 3.75457 10.4259 3.92762L12.05 7.3627C12.2065 7.69439 12.5092 7.92388 12.8598 7.97686L16.4917 8.52769C16.6747 8.55559 16.8179 8.68162 16.875 8.86533C16.9321 9.04873 16.8873 9.23872 16.7549 9.37352L14.127 12.0471C13.8735 12.3051 13.7578 12.6766 13.8179 13.0412Z" fill="#4A4A4A" stroke="#4A4A4A" stroke-width="0.6"/>
</svg>
