<svg width="20" height="21" viewBox="0 0 20 21" fill="none" xmlns="http://www.w3.org/2000/svg">
<g clip-path="url(#clip0_37507_5703)">
<path d="M5.31656 6.67003C5.4359 6.79297 5.48946 6.96541 5.46084 7.13432L5.21074 8.65011C5.17034 8.83808 5.24143 9.03255 5.39353 9.15014C5.54562 9.26774 5.75172 9.28758 5.92347 9.20114L7.25119 8.47523C7.39241 8.39748 7.5636 8.39748 7.70482 8.47523L9.03311 9.20114C9.20483 9.28758 9.41095 9.26774 9.56305 9.15014C9.71514 9.03255 9.78624 8.83808 9.74583 8.65011L9.49574 7.13432C9.46711 6.96541 9.52067 6.79297 9.64002 6.67003L10.6943 5.6014C10.8313 5.46337 10.8814 5.26121 10.8246 5.07521C10.7678 4.88921 10.6133 4.74949 10.4226 4.71155L8.95286 4.48924C8.79017 4.46318 8.65111 4.35799 8.58176 4.20855L7.91898 2.81148C7.84173 2.63698 7.66882 2.52441 7.47798 2.52441C7.28713 2.52441 7.11422 2.63698 7.037 2.81148L6.37425 4.20855C6.30491 4.35799 6.16584 4.46321 6.00315 4.48924L4.5334 4.71127C4.34264 4.74921 4.18821 4.88893 4.13142 5.07493C4.07464 5.26093 4.12467 5.46309 4.26168 5.60112L5.31656 6.67003Z" fill="#4A4A4A"/>
<path d="M13.2341 5.50388C13.3036 5.57562 13.3349 5.67622 13.3183 5.77475L13.1723 6.65925C13.1488 6.76887 13.1903 6.88225 13.279 6.95081C13.3677 7.01937 13.4879 7.031 13.588 6.98066L14.3628 6.55734C14.4452 6.51191 14.5453 6.51191 14.6277 6.55734L15.4025 6.98066C15.5027 7.031 15.6228 7.01937 15.7115 6.95081C15.8002 6.88225 15.8417 6.76887 15.8182 6.65925L15.6722 5.77475C15.6556 5.67619 15.6869 5.57562 15.7565 5.50388L16.3715 4.88212C16.451 4.80141 16.4799 4.68362 16.4468 4.57525C16.4137 4.46687 16.3239 4.38534 16.2129 4.36281L15.3556 4.23341C15.2605 4.21816 15.1793 4.15644 15.1392 4.06891L14.7524 3.25403C14.7077 3.15191 14.6068 3.08594 14.4953 3.08594C14.3838 3.08594 14.2829 3.15191 14.2382 3.25403L13.8513 4.06806C13.8112 4.15559 13.73 4.21731 13.6349 4.23256L12.7777 4.36197C12.6667 4.3845 12.5768 4.46603 12.5437 4.57441C12.5107 4.68278 12.5396 4.80056 12.6191 4.88128L13.2341 5.50388Z" fill="#4A4A4A"/>
<path d="M8.61202 10.8693C8.48342 10.8901 8.37836 10.9833 8.34227 11.1084C8.29355 11.247 8.32733 11.4013 8.42958 11.5068L9.74693 12.8435C9.95812 13.0612 10.0543 13.3658 10.0066 13.6654L9.94568 14.0275C10.0704 14.0948 10.1883 14.174 10.298 14.2638C10.3444 14.299 10.4015 14.317 10.4597 14.3149H13.3195C13.7015 14.312 14.0614 14.4939 14.2856 14.8033L14.6334 14.5102L14.4931 13.6653C14.4446 13.3652 14.5408 13.0599 14.7525 12.8418L16.0698 11.5067C16.172 11.4013 16.206 11.2473 16.1577 11.1087C16.1216 10.9839 16.017 10.8909 15.8888 10.8698L14.0521 10.5919C13.7579 10.544 13.5056 10.3554 13.3765 10.0867L12.5467 8.33674C12.4978 8.21596 12.3805 8.13696 12.2502 8.13696C12.1198 8.13696 12.0026 8.21599 11.9536 8.33674L11.1253 10.083C10.9963 10.353 10.7434 10.5428 10.4482 10.5911L8.61202 10.8693Z" fill="#4A4A4A"/>
<path d="M6.58156 18.5244L7.42366 18.1859C7.78944 18.0384 8.18016 17.9628 8.57454 17.963H13.6454C13.852 17.9554 14.0478 17.8688 14.1923 17.721L17.6954 14.1544C17.8969 13.945 17.9097 13.6179 17.7252 13.3934C17.629 13.2781 17.4909 13.2058 17.3414 13.1924C17.1918 13.1791 17.0431 13.2257 16.928 13.3222L14.4859 15.3665V15.3789C14.5017 15.6861 14.3908 15.9864 14.179 16.2095C13.9673 16.4327 13.6732 16.5592 13.3656 16.5595H10.2779C10.1228 16.5595 9.99717 16.4338 9.99717 16.2788C9.99717 16.1238 10.1229 15.9981 10.2779 15.9981H13.3656C13.5195 15.9983 13.6667 15.9353 13.7728 15.8239C13.879 15.7124 13.9347 15.5623 13.927 15.4086C13.9256 15.3854 13.9228 15.3622 13.9186 15.3393C13.9142 15.3257 13.9109 15.3118 13.9088 15.2978C13.8264 15.0429 13.5871 14.872 13.3193 14.8767H10.4595C10.2708 14.8788 10.0873 14.8153 9.9402 14.697C9.64067 14.4482 9.26295 14.313 8.87354 14.3153C7.84194 14.3153 6.21724 14.5679 4.02635 16.7594C3.54635 17.2388 2.46453 18.1197 2.14453 18.3782V18.5244L6.58156 18.5244Z" fill="#4A4A4A"/>
</g>
<defs>
<clipPath id="clip0_37507_5703">
<rect width="16" height="16" fill="white" transform="translate(2 2.52441)"/>
</clipPath>
</defs>
</svg>
