<svg xmlns="http://www.w3.org/2000/svg" fill="none" viewBox="3 2.52 13.99 16">
<path d="M4.56665 12.8115L3.05347 15.8374C2.98071 15.9828 2.98852 16.1555 3.07385 16.2937C3.15942 16.4318 3.31006 16.5159 3.47253 16.5159H5.74878L7.1145 18.3368C7.20325 18.4556 7.34253 18.5243 7.48913 18.5243C7.68384 18.5243 7.83728 18.4081 7.90857 18.2653L9.33447 15.4133C7.40661 15.229 5.70691 14.2515 4.56665 12.8115Z" fill="#FFF"/>
<path d="M16.946 15.8374L15.4329 12.8115C14.2926 14.2515 12.5929 15.229 10.665 15.4133L12.0911 18.2653C12.1622 18.4081 12.3157 18.5243 12.5104 18.5243C12.657 18.5243 12.7964 18.4556 12.8851 18.3368L14.2507 16.5159H16.527C16.6895 16.5159 16.8401 16.4318 16.9257 16.2937C17.011 16.1555 17.0188 15.9828 16.946 15.8374Z" fill="#FFF"/>
<path d="M10.7847 7.13831L10.0001 5.88501L9.21582 7.13831C9.15149 7.24109 9.0498 7.31494 8.93225 7.34436L7.49805 7.70312L8.44751 8.83643C8.52539 8.92932 8.56421 9.04883 8.55579 9.1698L8.45361 10.6447L9.82483 10.0919C9.89001 10.0657 10.0233 10.0306 10.1753 10.0919L11.5466 10.6447L11.4446 9.1698C11.4363 9.04883 11.4751 8.92932 11.553 8.83643L12.5024 7.70312L11.0682 7.34436C10.9507 7.31494 10.849 7.24109 10.7847 7.13831Z" fill="#FFF"/>
<path d="M15.9912 8.51611C15.9912 5.21228 13.3033 2.52441 9.99951 2.52441C6.69568 2.52441 4.00781 5.21228 4.00781 8.51611C4.00781 11.8198 6.69568 14.5078 9.99951 14.5078C13.3033 14.5078 15.9912 11.8199 15.9912 8.51611ZM13.7014 7.73108L12.3923 9.29358L12.533 11.327C12.5441 11.4882 12.4716 11.6437 12.3409 11.7386C12.2102 11.8335 12.0399 11.8545 11.8901 11.7942L9.99951 11.0321L8.10889 11.7942C8.05823 11.8146 7.85645 11.8827 7.65808 11.7386C7.52747 11.6437 7.45496 11.4882 7.46606 11.327L7.60693 9.29358L6.29785 7.7312C6.19409 7.6073 6.16138 7.43884 6.2113 7.28528C6.26123 7.13171 6.38672 7.01453 6.54346 6.97534L8.52075 6.48071L9.60217 4.75281C9.68787 4.61597 9.83801 4.53284 9.99951 4.53284C10.161 4.53284 10.3112 4.61597 10.3969 4.75281L11.4785 6.48071L13.4558 6.97534C13.6125 7.01453 13.738 7.13171 13.788 7.28528C13.8379 7.43884 13.8052 7.6073 13.7014 7.73108Z" fill="#FFF"/>
</svg>