<svg xmlns="http://www.w3.org/2000/svg" fill="none" viewBox="8.75 8.75 10.5 10.5">
<path d="M17.9697 19.0303C18.2626 19.3232 18.7374 19.3232 19.0303 19.0303C19.3232 18.7374 19.3232 18.2626 19.0303 17.9697L15.0607 14L19.0303 10.0303C19.3232 9.73744 19.3232 9.26256 19.0303 8.96967C18.7374 8.67678 18.2626 8.67678 17.9697 8.96967L14 12.9393L10.0303 8.96967C9.73744 8.67678 9.26256 8.67678 8.96967 8.96967C8.67678 9.26256 8.67678 9.73744 8.96967 10.0303L12.9393 14L8.96967 17.9697C8.67678 18.2626 8.67678 18.7374 8.96967 19.0303C9.26256 19.3232 9.73744 19.3232 10.0303 19.0303L14 15.0607L17.9697 19.0303Z" fill="#FFF"/>
</svg>