<svg
  xmlns="http://www.w3.org/2000/svg"
  width="80"
  height="94"
  viewBox="0 0 80 94"
  fill="none"
>
  <path
    d="M0 0.000183267L80 0V93.9998L0 94V89.6667C0.0906113 89.6855 0.181223 89.7043 0.271834 89.7043C1.79712 89.7043 3.03548 88.166 3.03548 86.2714C3.03548 84.3768 1.79712 82.8386 0.271834 82.8386C0.181223 82.8386 0.0906113 82.8667 0 82.8761V76.7983C0.0906113 76.817 0.181223 76.8358 0.271834 76.8358C1.79712 76.8358 3.03548 75.2976 3.03548 73.403C3.03548 71.5083 1.79712 69.9701 0.271834 69.9701C0.181223 69.9701 0.0906113 69.9982 0 70.0076V63.9298C0.0906113 63.9486 0.181223 63.9673 0.271834 63.9673C1.79712 63.9673 3.03548 62.4291 3.03548 60.5345C3.03548 58.6399 1.79712 57.1016 0.271834 57.1016C0.181223 57.1016 0.0906113 57.1298 0 57.1392V51.0613C0.0906113 51.0801 0.181223 51.0989 0.271834 51.0989C1.79712 51.0989 3.03548 49.5606 3.03548 47.666C3.03548 45.7714 1.79712 44.2332 0.271834 44.2332C0.181223 44.2332 0.0906113 44.2613 0 44.2707V38.1929C0.0906113 38.2116 0.181223 38.2304 0.271834 38.2304C1.79712 38.2304 3.03548 36.6922 3.03548 34.7976C3.03548 32.9029 1.79712 31.3647 0.271834 31.3647C0.181223 31.3647 0.0906113 31.3929 0 31.4022V25.3244C0.0906113 25.3432 0.181223 25.3619 0.271834 25.3619C1.79712 25.3619 3.03548 23.8237 3.03548 21.9291C3.03548 20.0345 1.79712 18.4963 0.271834 18.4963C0.181223 18.4963 0.0906113 18.5244 0 18.5338V12.456L1.37687e-05 12.456C0.0906205 12.4747 0.181227 12.4935 0.271834 12.4935C1.79712 12.4935 3.03548 10.9553 3.03548 9.06063C3.03548 7.166 1.79712 5.62779 0.271834 5.62779C0.181223 5.62779 0.0906113 5.65593 0 5.66531V0.000183267Z"
    fill="#BB254A"
  ></path>
</svg>