<svg width="20" height="21" viewBox="0 0 20 21" fill="none" xmlns="http://www.w3.org/2000/svg">
<path d="M16.9365 10.7317C16.8721 10.5999 16.8721 10.4489 16.9365 10.3172L17.5333 9.09643C17.8655 8.41672 17.6023 7.60657 16.934 7.25198L15.7337 6.61511C15.6042 6.54643 15.5154 6.42418 15.49 6.27984L15.2553 4.94144C15.1246 4.19627 14.4353 3.69552 13.6863 3.80149L12.3409 3.9918C12.1957 4.0123 12.0521 3.96561 11.9468 3.86371L10.9702 2.91897C10.4264 2.39291 9.57454 2.39288 9.0308 2.91897L8.05418 3.8638C7.94881 3.96574 7.80522 4.01233 7.66003 3.99189L6.31464 3.80158C5.56543 3.69555 4.87638 4.19636 4.74566 4.94154L4.51091 6.27987C4.48557 6.42424 4.39679 6.54646 4.26732 6.61518L3.06702 7.25204C2.39872 7.6066 2.13547 8.41681 2.46772 9.09652L3.06443 10.3173C3.1288 10.449 3.1288 10.6 3.06443 10.7317L2.46769 11.9525C2.13544 12.6322 2.39869 13.4423 3.06699 13.7969L4.26729 14.4338C4.39679 14.5025 4.48557 14.6247 4.51091 14.769L4.74566 16.1074C4.86466 16.7858 5.44634 17.2616 6.11486 17.2615C6.18071 17.2615 6.24752 17.2569 6.31467 17.2474L7.66006 17.0571C7.80516 17.0365 7.94884 17.0832 8.05421 17.1851L9.0308 18.1299C9.30273 18.3929 9.65154 18.5244 10.0005 18.5244C10.3493 18.5244 10.6983 18.3929 10.9701 18.1299L11.9468 17.1851C12.0521 17.0832 12.1958 17.0367 12.3409 17.0571L13.6863 17.2474C14.4356 17.3534 15.1246 16.8526 15.2553 16.1074L15.4901 14.7691C15.5154 14.6247 15.6042 14.5025 15.7337 14.4338L16.934 13.7969C17.6023 13.4423 17.8655 12.6321 17.5333 11.9524L16.9365 10.7317ZM16.5014 12.9817L15.3011 13.6186C14.9184 13.8217 14.656 14.1828 14.5811 14.6096L14.3464 15.9479C14.3022 16.2001 14.0691 16.3694 13.8156 16.3336L12.4702 16.1433C12.0411 16.0825 11.6165 16.2206 11.3051 16.5218L10.3285 17.4665C10.1446 17.6445 9.85638 17.6445 9.67238 17.4665L8.6958 16.5218C8.43262 16.2672 8.08856 16.1293 7.72938 16.1293C7.66356 16.1293 7.59722 16.1339 7.53078 16.1433L6.18539 16.3336C5.93208 16.3694 5.6988 16.2 5.65456 15.9479L5.41978 14.6095C5.3449 14.1828 5.08247 13.8216 4.69975 13.6185L3.49946 12.9817C3.27333 12.8617 3.18427 12.5876 3.29668 12.3576L3.89342 11.1369C4.08367 10.7476 4.08367 10.3012 3.89342 9.91195L3.29668 8.69118C3.18427 8.46122 3.27333 8.18713 3.49946 8.06716L4.69975 7.43029C5.08244 7.2272 5.3449 6.86602 5.41975 6.43927L5.65449 5.10091C5.69874 4.84879 5.9318 4.67942 6.18533 4.71523L7.53072 4.90554C7.95962 4.96626 8.38434 4.82823 8.69574 4.52701L9.67235 3.58227C9.85629 3.40434 10.1445 3.40434 10.3285 3.58227L11.3051 4.52701C11.6165 4.82826 12.0411 4.96626 12.4701 4.90554L13.8155 4.71523C14.0688 4.67939 14.3021 4.84879 14.3463 5.10091L14.5811 6.4393C14.656 6.86605 14.9184 7.22726 15.3011 7.43029L16.5014 8.06716C16.7275 8.18713 16.8166 8.46122 16.7042 8.69118L16.1074 9.91192C15.9172 10.3011 15.9172 10.7476 16.1074 11.1368L16.7042 12.3576C16.8166 12.5876 16.7276 12.8617 16.5014 12.9817Z" fill="#4A4A4A" stroke="#4A4A4A" stroke-width="0.3"/>
<path d="M13.372 7.15321C13.1919 6.97302 12.8997 6.97302 12.7195 7.15321L6.62928 13.2434C6.44909 13.4236 6.44909 13.7158 6.62928 13.896C6.71937 13.9861 6.83746 14.0311 6.95553 14.0311C7.07359 14.0311 7.19171 13.9861 7.28177 13.896L13.372 7.80576C13.5522 7.62554 13.5522 7.33342 13.372 7.15321Z" fill="#4A4A4A" stroke="#4A4A4A" stroke-width="0.3"/>
<path d="M8.15471 6.37183C7.22185 6.37183 6.46289 7.13079 6.46289 8.06365C6.46289 8.99651 7.22185 9.75547 8.15471 9.75547C9.08758 9.75547 9.84654 8.99651 9.84654 8.06365C9.84654 7.13079 9.08758 6.37183 8.15471 6.37183ZM8.15471 8.83264C7.73069 8.83264 7.38572 8.48768 7.38572 8.06362C7.38572 7.63959 7.73069 7.29463 8.15471 7.29463C8.57874 7.29463 8.92374 7.63959 8.92374 8.06362C8.92371 8.48768 8.57874 8.83264 8.15471 8.83264Z" fill="#4A4A4A" stroke="#4A4A4A" stroke-width="0.3"/>
<path d="M11.8461 11.2935C10.9133 11.2935 10.1543 12.0524 10.1543 12.9853C10.1543 13.9181 10.9133 14.6771 11.8461 14.6771C12.779 14.6771 13.5379 13.9181 13.5379 12.9853C13.5379 12.0524 12.779 11.2935 11.8461 11.2935ZM11.8461 13.7543C11.4221 13.7543 11.0771 13.4093 11.0771 12.9853C11.0771 12.5613 11.4221 12.2163 11.8461 12.2163C12.2701 12.2163 12.6151 12.5613 12.6151 12.9853C12.6151 13.4093 12.2701 13.7543 11.8461 13.7543Z" fill="#4A4A4A" stroke="#4A4A4A" stroke-width="0.3"/>
</svg>
