<svg width="20" height="21" viewBox="0 0 20 21" fill="none" xmlns="http://www.w3.org/2000/svg">
<path d="M9.17595 9.36835C9.95336 9.36835 10.7133 9.13782 11.3597 8.70592C12.0061 8.27402 12.5099 7.66013 12.8074 6.94191C13.1049 6.22368 13.1827 5.43336 13.0311 4.67089C12.8794 3.90842 12.505 3.20805 11.9553 2.65834C11.4056 2.10863 10.7053 1.73427 9.94278 1.58261C9.18031 1.43094 8.38999 1.50878 7.67176 1.80628C6.95353 2.10378 6.33965 2.60758 5.90775 3.25397C5.47585 3.90036 5.24532 4.66031 5.24532 5.43772C5.24654 6.47981 5.66105 7.47887 6.39793 8.21574C7.1348 8.95262 8.13386 9.36713 9.17595 9.36835ZM9.17595 2.89436C9.67898 2.89436 10.1707 3.04353 10.589 3.323C11.0072 3.60246 11.3332 3.99968 11.5257 4.46442C11.7182 4.92915 11.7686 5.44054 11.6704 5.9339C11.5723 6.42726 11.3301 6.88044 10.9744 7.23614C10.6187 7.59183 10.1655 7.83406 9.67214 7.9322C9.17878 8.03034 8.66739 7.97997 8.20265 7.78747C7.73792 7.59497 7.3407 7.26898 7.06123 6.85073C6.78177 6.43248 6.6326 5.94074 6.6326 5.43772C6.63334 4.7634 6.90153 4.11692 7.37834 3.64011C7.85515 3.1633 8.50164 2.8951 9.17595 2.89436ZM3.38728 16.0921C3.38728 17.5376 4.00971 18.1545 5.46821 18.1545H11.9422C12.1262 18.1545 12.3026 18.2276 12.4327 18.3576C12.5628 18.4877 12.6358 18.6642 12.6358 18.8481C12.6358 19.0321 12.5628 19.2085 12.4327 19.3386C12.3026 19.4687 12.1262 19.5418 11.9422 19.5418H5.46821C3.23191 19.5418 2 18.3163 2 16.0921C2 13.6301 3.39283 10.7556 7.31792 10.7556H11.0173C12.2569 10.7057 13.4755 11.0864 14.4661 11.8331C14.5396 11.8892 14.6012 11.9595 14.6471 12.0397C14.693 12.1199 14.7225 12.2086 14.7337 12.3004C14.7449 12.3921 14.7376 12.4853 14.7123 12.5742C14.687 12.6631 14.6442 12.7461 14.5863 12.8183C14.5285 12.8904 14.4568 12.9503 14.3755 12.9943C14.2942 13.0383 14.2049 13.0657 14.1129 13.0747C14.0209 13.0837 13.928 13.0743 13.8396 13.0469C13.7513 13.0195 13.6694 12.9747 13.5986 12.9152C12.8522 12.3693 11.9409 12.0967 11.0173 12.1429H7.31792C6.78977 12.1022 6.25907 12.1766 5.76246 12.3609C5.26585 12.5453 4.81515 12.8352 4.44146 13.2106C4.06777 13.5861 3.78 14.0381 3.598 14.5356C3.416 15.0331 3.34411 15.5641 3.38728 16.0921ZM18 16.9984C18 17.1824 17.9269 17.3588 17.7968 17.4889C17.6668 17.619 17.4903 17.6921 17.3064 17.6921H16.1503V18.8481C16.1503 19.0321 16.0772 19.2085 15.9471 19.3386C15.817 19.4687 15.6406 19.5418 15.4566 19.5418C15.2727 19.5418 15.0963 19.4687 14.9662 19.3386C14.8361 19.2085 14.763 19.0321 14.763 18.8481V17.6921H13.6069C13.423 17.6921 13.2465 17.619 13.1165 17.4889C12.9864 17.3588 12.9133 17.1824 12.9133 16.9984C12.9133 16.8144 12.9864 16.638 13.1165 16.5079C13.2465 16.3778 13.423 16.3048 13.6069 16.3048H14.763V15.1487C14.763 14.9647 14.8361 14.7883 14.9662 14.6582C15.0963 14.5281 15.2727 14.4551 15.4566 14.4551C15.6406 14.4551 15.817 14.5281 15.9471 14.6582C16.0772 14.7883 16.1503 14.9647 16.1503 15.1487V16.3048H17.3064C17.4903 16.3048 17.6668 16.3778 17.7968 16.5079C17.9269 16.638 18 16.8144 18 16.9984Z" fill="#4A4A4A"/>
</svg>
