<svg width="20" height="21" viewBox="0 0 20 21" fill="none" xmlns="http://www.w3.org/2000/svg">
<g clip-path="url(#clip0_37507_28107)">
<path d="M3.56484 4.53066C3.44219 4.4084 3.44219 4.21074 3.56484 4.08852C3.68566 3.9666 3.88336 3.9666 4.00605 4.08852L5.02574 5.10879C5.1484 5.23066 5.1484 5.42875 5.02574 5.55059C4.96531 5.61195 4.88477 5.64242 4.80605 5.64242C4.72547 5.64242 4.64496 5.61195 4.58453 5.55059L3.56484 4.53066ZM2.6532 10.212H1.21062C1.03855 10.212 0.899414 10.3518 0.899414 10.5245C0.899414 10.6971 1.03855 10.837 1.21062 10.837H2.6532C2.82711 10.837 2.96625 10.6971 2.96625 10.5245C2.96625 10.3518 2.82711 10.212 2.6532 10.212ZM4.58453 15.4983L3.56484 16.5182C3.44219 16.6405 3.44219 16.8381 3.56484 16.9604C3.62527 17.0214 3.70578 17.0518 3.78453 17.0518C3.86508 17.0518 3.94562 17.0213 4.00605 16.9604L5.02574 15.94C5.1484 15.8182 5.1484 15.6201 5.02574 15.4983C4.90488 15.3764 4.70715 15.3764 4.58453 15.4983ZM9.99957 3.49043C10.1735 3.49043 10.3126 3.35063 10.3126 3.17793V1.73535C10.3126 1.56273 10.1735 1.42285 9.99957 1.42285C9.8275 1.42285 9.68836 1.56273 9.68836 1.73535V3.17793C9.68836 3.35063 9.82746 3.49043 9.99957 3.49043ZM15.993 4.08852L14.9734 5.10879C14.8525 5.23066 14.8525 5.42875 14.9734 5.55059C15.0356 5.61152 15.1143 5.64242 15.1949 5.64242C15.2755 5.64242 15.3541 5.61152 15.4164 5.55059L16.4361 4.53066C16.5587 4.4084 16.5587 4.21074 16.4361 4.08852C16.3134 3.9666 16.1157 3.9666 15.993 4.08852ZM18.7885 10.212H17.3459C17.1738 10.212 17.0347 10.3518 17.0347 10.5245C17.0347 10.6971 17.1738 10.837 17.3459 10.837H18.7885C18.9624 10.837 19.1015 10.6971 19.1015 10.5245C19.1015 10.3518 18.9624 10.212 18.7885 10.212ZM15.4164 15.4983C15.2937 15.376 15.0961 15.376 14.9734 15.4983C14.8525 15.6201 14.8525 15.8182 14.9734 15.94L15.993 16.9604C16.0553 17.0214 16.134 17.0518 16.2146 17.0518C16.2952 17.0518 16.3738 17.0213 16.4361 16.9604C16.5587 16.8381 16.5587 16.6405 16.4361 16.5182L15.4164 15.4983ZM9.99957 17.5585C9.8275 17.5585 9.68836 17.6983 9.68836 17.871V19.3135C9.68836 19.4861 9.8275 19.626 9.99957 19.626C10.1735 19.626 10.3126 19.4861 10.3126 19.3135V17.871C10.3126 17.6983 10.1735 17.5585 9.99957 17.5585ZM15.7862 10.1163C16.0168 9.80957 16.0773 9.44008 15.9583 9.07602C15.8411 8.71199 15.5738 8.44902 15.2077 8.33574L12.7125 7.56465C12.5954 7.52875 12.5112 7.46773 12.4416 7.36734L10.9368 5.23223C10.7153 4.91895 10.384 4.74668 9.99953 4.74668C9.61691 4.74668 9.28375 4.91895 9.0641 5.23223L7.55934 7.36734C7.48793 7.46773 7.40551 7.52832 7.28836 7.56465L4.7932 8.33574C4.42707 8.44902 4.1598 8.71195 4.04078 9.07602C3.92363 9.44043 3.98406 9.81 4.21285 10.1163L5.77988 12.2068C5.85312 12.3053 5.88609 12.4038 5.88238 12.5264L5.84578 15.1381C5.84027 15.5209 6.00687 15.8561 6.31809 16.0811C6.51945 16.2279 6.74644 16.303 6.98078 16.303C7.10707 16.303 7.23344 16.2814 7.35973 16.2386L9.83289 15.3955C9.9482 15.3557 10.0526 15.3557 10.1679 15.3955L12.6411 16.2386C13.0017 16.362 13.3733 16.3061 13.6827 16.0811C13.9921 15.8561 14.1605 15.521 14.155 15.1382L14.1166 12.5264C14.1148 12.4038 14.1477 12.3054 14.2209 12.2069L15.7862 10.1163Z" fill="#4A4A4A"/>
</g>
<defs>
<clipPath id="clip0_37507_28107">
<rect width="20" height="20" fill="white" transform="translate(0 0.524414)"/>
</clipPath>
</defs>
</svg>
