<svg width="20" height="21" viewBox="0 0 20 21" fill="none" xmlns="http://www.w3.org/2000/svg">
<g clip-path="url(#clip0_37507_12557)">
<path d="M13.2812 16.7041H12.8711V15.8291H7.12891V16.7041H6.71875C6.49204 16.7041 6.30859 16.8876 6.30859 17.1143C6.30859 17.341 6.49204 17.5244 6.71875 17.5244H13.2812C13.508 17.5244 13.6914 17.341 13.6914 17.1143C13.6914 16.8876 13.508 16.7041 13.2812 16.7041Z" fill="#4A4A4A"/>
<path d="M10.058 6.81415L9.9999 6.698L9.94423 6.80934C9.84316 7.01743 9.63855 7.03372 9.63582 7.03646L9.50684 7.05568L9.59535 7.14299C9.69247 7.23549 9.74032 7.375 9.71552 7.5115L9.6951 7.63526L9.81084 7.57519C9.92703 7.51473 10.0691 7.51281 10.189 7.57519L10.3047 7.63526L10.2835 7.50669C10.2614 7.37492 10.3051 7.24072 10.4 7.14739L10.493 7.05568L10.364 7.03646C10.2318 7.01642 10.1177 6.93351 10.058 6.81415Z" fill="#4A4A4A"/>
<path d="M16.5898 4.34473H14.503C14.5064 4.20834 14.5117 4.07337 14.5117 3.93457C14.5117 3.70786 14.3283 3.52441 14.1016 3.52441H5.89844C5.67173 3.52441 5.48828 3.70786 5.48828 3.93457C5.48828 4.07337 5.49359 4.20839 5.497 4.34473H3.41016C3.18345 4.34473 3 4.52818 3 4.75488V5.79389C3 8.08368 4.83395 9.94371 7.09432 10.064C7.5657 10.7124 8.12701 11.1938 8.76234 11.4672C8.66915 13.3387 7.67616 14.635 7.35493 15.0088H12.6444C12.3233 14.6376 11.3305 13.349 11.2373 11.4672C11.8728 11.1938 12.4344 10.7125 12.9058 10.064C15.1661 9.94366 17 8.08366 17 5.79389V4.75488C17 4.52818 16.8166 4.34473 16.5898 4.34473ZM3.82031 5.79389V5.16504H5.53786C5.66022 6.72771 6.01574 8.09771 6.55914 9.17659C5.01023 8.82782 3.82031 7.44668 3.82031 5.79389ZM11.6534 7.06401L11.1275 7.5819L11.2485 8.31009C11.2742 8.46349 11.2109 8.61812 11.0851 8.70903C10.9589 8.80066 10.7931 8.81289 10.6549 8.74149L10 8.40142L9.34512 8.74149C9.20654 8.81198 9.0407 8.80036 8.91495 8.70903C8.78916 8.61812 8.72589 8.46352 8.75151 8.31009L8.87248 7.5819L8.34658 7.06401C8.23373 6.95286 8.19745 6.78882 8.24445 6.64505C8.29252 6.49764 8.41989 6.38949 8.5737 6.36628L9.30347 6.25652L9.63313 5.59682C9.77171 5.31885 10.2283 5.31885 10.3669 5.59682L10.6966 6.25652L11.4264 6.36628C11.5802 6.38952 11.7075 6.49766 11.7556 6.64505C11.8036 6.79284 11.764 6.95507 11.6534 7.06401ZM16.1797 5.79389C16.1797 7.44663 14.9898 8.82776 13.4409 9.17653C13.9843 8.09766 14.3398 6.72776 14.4621 5.16504H16.1797V5.79389Z" fill="#4A4A4A"/>
</g>
<defs>
<clipPath id="clip0_37507_12557">
<rect width="14" height="14" fill="white" transform="translate(3 3.52441)"/>
</clipPath>
</defs>
</svg>
