<svg width="20" height="21" viewBox="0 0 20 21" fill="none" xmlns="http://www.w3.org/2000/svg">
<g clip-path="url(#clip0_37507_28146)">
<path d="M4.16699 11.9827H9.56283V17.5243H5.18783C4.62783 17.5243 4.16699 17.0635 4.16699 16.5035V11.9827Z" fill="#4A4A4A"/>
<path d="M15.8333 11.9827V16.5035C15.8333 17.0635 15.3725 17.5243 14.8125 17.5243H10.4375V11.9827H15.8333Z" fill="#4A4A4A"/>
<path d="M3 8.6285V10.0868C3 10.6468 3.46083 11.1077 4.02083 11.1077H4.16667H9.5625V10.2327V7.60767H4.02083C3.46083 7.60767 3 8.0685 3 8.6285Z" fill="#4A4A4A"/>
<path d="M15.9792 7.60767H10.4375V10.2327V11.1077H15.8333H15.9792C16.5392 11.1077 17 10.6468 17 10.0868V8.6285C17 8.0685 16.5392 7.60767 15.9792 7.60767Z" fill="#4A4A4A"/>
<path d="M9.99984 8.21663C9.87268 8.21663 9.75134 8.16121 9.66909 8.06496C9.58568 7.96871 9.54893 7.84096 9.56701 7.71496C9.78284 6.25663 10.9221 3.49805 13.6918 3.49805C15.2726 3.49863 15.8332 4.35263 15.8332 5.08413C15.8332 6.38438 14.0231 8.21663 9.99984 8.21663ZM13.6918 4.37363C11.6023 4.37363 10.8089 6.35988 10.5458 7.3288C12.1943 7.2518 13.2338 6.83471 13.8323 6.47946C14.6624 5.98655 14.9582 5.4353 14.9582 5.08355C14.9582 4.55971 14.3043 4.37363 13.6918 4.37363Z" fill="#4A4A4A"/>
<path d="M10.0003 8.21678C5.97708 8.21678 4.16699 6.38453 4.16699 5.08428C4.16699 4.35278 4.72816 3.49878 6.30899 3.49878C9.07808 3.49878 10.2173 6.25736 10.4332 7.7157C10.4512 7.8417 10.4145 7.96945 10.3311 8.0657C10.2488 8.16136 10.1275 8.21678 10.0003 8.21678ZM6.30899 4.37378C5.69649 4.37378 5.04199 4.56045 5.04199 5.08428C5.04199 5.8292 6.34458 7.18661 9.45374 7.32953C9.19124 6.36003 8.39791 4.37378 6.30899 4.37378Z" fill="#4A4A4A"/>
</g>
<defs>
<clipPath id="clip0_37507_28146">
<rect width="14" height="14" fill="white" transform="translate(3 3.52441)"/>
</clipPath>
</defs>
</svg>
